<svg xmlns="http://www.w3.org/2000/svg" viewBox="0 0 1199 1199"><defs><style>.cls-1{fill:#ffb600;}.cls-2{fill:#b9310e;}.cls-3{fill:#fff;}</style></defs><title>warmth_logo</title><g id="Outline"><path class="cls-1" d="M870.33,1016c0-172.89,279.34-367.16,279.34-558.66a279,279,0,0,0-118.48-228.41c0,172.9-279.33,367.16-279.33,558.66A279,279,0,0,0,870.33,1016Z"/><path class="cls-1" d="M657.18,694.89C696.63,519.24,930.85,343,930.85,184.66A278.58,278.58,0,0,0,870.33,178C716.06,178,591,303.06,591,457.34,591,522,617.2,607.59,657.18,694.89Z"/><path class="cls-2" d="M848.33,999c0-172.89,279.34-367.16,279.34-558.66a279,279,0,0,0-118.48-228.41c0,172.9-279.33,367.16-279.33,558.66A279,279,0,0,0,848.33,999Z"/><path class="cls-2" d="M635.18,677.89C674.63,502.24,908.85,326,908.85,167.66A278.58,278.58,0,0,0,848.33,161C694.06,161,569,286.06,569,440.34,569,505,595.2,590.59,635.18,677.89Z"/><path class="cls-1" d="M624.85,821.34C502.86,704.05,208,763,97.91,657.12a246.57,246.57,0,0,0,72.93,215.36c122,117.29,416.82,58.33,526.95,164.22A246.54,246.54,0,0,0,624.85,821.34Z"/><path class="cls-1" d="M513,516.6c-98.27-94.48-254.53-91.41-349,6.86a246.59,246.59,0,0,0-32.83,42.63c100.85,97,356.58,55.71,492.63,138.17C592.66,625.33,554.16,556.18,513,516.6Z"/><path class="cls-2" d="M585.76,798.55C463.77,681.26,169,740.22,58.82,634.33a246.57,246.57,0,0,0,72.93,215.36c122,117.29,416.81,58.33,527,164.22A246.54,246.54,0,0,0,585.76,798.55Z"/><path class="cls-2" d="M473.91,493.81c-98.27-94.48-254.53-91.41-349,6.86A247,247,0,0,0,92.07,543.3c100.85,97,356.58,55.71,492.63,138.17C553.57,602.54,515.07,533.39,473.91,493.81Z"/><rect class="cls-3" width="1199" height="1199" rx="143.23" ry="143.23" transform="translate(1199 1199) rotate(180)"/></g><g id="Layer_2" data-name="Layer 2"><path class="cls-1" d="M870.33,1016c0-172.89,279.34-367.16,279.34-558.66a279,279,0,0,0-118.48-228.41c0,172.9-279.33,367.16-279.33,558.66A279,279,0,0,0,870.33,1016Z"/><path class="cls-1" d="M657.18,694.89C696.63,519.24,930.85,343,930.85,184.66A278.58,278.58,0,0,0,870.33,178C716.06,178,591,303.06,591,457.34,591,522,617.2,607.59,657.18,694.89Z"/><path class="cls-2" d="M848.33,999c0-172.89,279.34-367.16,279.34-558.66a279,279,0,0,0-118.48-228.41c0,172.9-279.33,367.16-279.33,558.66A279,279,0,0,0,848.33,999Z"/><path class="cls-2" d="M635.18,677.89C674.63,502.24,908.85,326,908.85,167.66A278.58,278.58,0,0,0,848.33,161C694.06,161,569,286.06,569,440.34,569,505,595.2,590.59,635.18,677.89Z"/><path class="cls-1" d="M624.85,821.34C502.86,704.05,208,763,97.91,657.12a246.57,246.57,0,0,0,72.93,215.36c122,117.29,416.82,58.33,526.95,164.22A246.54,246.54,0,0,0,624.85,821.34Z"/><path class="cls-1" d="M513,516.6c-98.27-94.48-254.53-91.41-349,6.86a246.59,246.59,0,0,0-32.83,42.63c100.85,97,356.58,55.71,492.63,138.17C592.66,625.33,554.16,556.18,513,516.6Z"/><path class="cls-2" d="M585.76,798.55C463.77,681.26,169,740.22,58.82,634.33a246.57,246.57,0,0,0,72.93,215.36c122,117.29,416.81,58.33,527,164.22A246.54,246.54,0,0,0,585.76,798.55Z"/><path class="cls-2" d="M473.91,493.81c-98.27-94.48-254.53-91.41-349,6.86A247,247,0,0,0,92.07,543.3c100.85,97,356.58,55.71,492.63,138.17C553.57,602.54,515.07,533.39,473.91,493.81Z"/></g></svg>