<svg xmlns="http://www.w3.org/2000/svg" viewBox="0 0 1093.68 875.7"><defs><style>.cls-1{fill:#ffb600;}.cls-2{fill:#b9310e;}</style></defs><title>Asset 1_cutout</title><g id="Layer_2" data-name="Layer 2"><g id="Layer_2-2" data-name="Layer 2"><path class="cls-1" d="M279.34,20.7C279.34,193.59,0,387.85,0,579.36A279,279,0,0,0,118.47,807.77c0-172.9,279.34-367.16,279.34-558.67A279,279,0,0,0,279.34,20.7Z"/><path class="cls-1" d="M492.49,341.8C453,517.46,218.81,693.71,218.81,852a279.36,279.36,0,0,0,60.53,6.66c154.27,0,279.33-125.06,279.33-279.34C558.67,514.75,532.46,429.1,492.49,341.8Z"/><path class="cls-2" d="M301.34,37.7C301.34,210.59,22,404.85,22,596.36A279,279,0,0,0,140.47,824.77c0-172.9,279.34-367.16,279.34-558.67A279,279,0,0,0,301.34,37.7Z"/><path class="cls-2" d="M514.49,358.8C475,534.46,240.81,710.71,240.81,869a279.36,279.36,0,0,0,60.53,6.66c154.27,0,279.33-125.06,279.33-279.34C580.67,531.75,554.46,446.1,514.49,358.8Z"/><path class="cls-1" d="M524.81,215.36c122,117.29,416.81,58.32,527,164.22a246.56,246.56,0,0,0-72.93-215.36C856.84,46.93,562,105.89,451.88,0A246.55,246.55,0,0,0,524.81,215.36Z"/><path class="cls-1" d="M636.66,520.09c98.28,94.49,254.54,91.42,349-6.85a246.27,246.27,0,0,0,32.83-42.64c-100.85-97-356.58-55.71-492.63-138.16C557,411.37,595.51,480.52,636.66,520.09Z"/><path class="cls-2" d="M563.9,238.15c122,117.29,416.81,58.32,526.95,164.22A246.56,246.56,0,0,0,1017.92,187C895.93,69.72,601.1,128.68,491,22.79A246.55,246.55,0,0,0,563.9,238.15Z"/><path class="cls-2" d="M675.76,542.88c98.27,94.49,254.53,91.42,349-6.85a246.27,246.27,0,0,0,32.83-42.64C956.75,396.43,701,437.68,565,355.23,596.09,434.16,634.6,503.31,675.76,542.88Z"/></g></g></svg>